<svg width="857" height="303" viewBox="0 0 857 303" fill="none" xmlns="http://www.w3.org/2000/svg">
<g clip-path="url(#clip0)">
<path d="M422.602 255.88V235.08H451.562V230.04H422.602V210.12H455.082V205H416.682V261H456.282V255.88H422.602ZM523.478 205L499.398 246.52L475.078 205H470.198V261H475.878V216.44L497.878 253.88H500.678L522.678 216.2V261H528.358V205H523.478ZM567.564 205H546.604V261H552.524V243.32H567.564C581.804 243.32 590.444 236.12 590.444 224.2C590.444 212.2 581.804 205 567.564 205ZM567.404 238.12H552.524V210.12H567.404C578.604 210.12 584.524 215.24 584.524 224.2C584.524 233 578.604 238.12 567.404 238.12ZM603.245 261H609.165V205H603.245V261ZM672.105 261L658.425 241.8C666.585 239.16 671.225 233 671.225 224.2C671.225 212.2 662.585 205 648.345 205H627.385V261H633.305V243.24H648.345C649.945 243.24 651.385 243.16 652.825 243L665.625 261H672.105ZM648.185 238.2H633.305V210.12H648.185C659.385 210.12 665.305 215.24 665.305 224.2C665.305 233 659.385 238.2 648.185 238.2ZM691.118 255.88V235.08H720.078V230.04H691.118V210.12H723.598V205H685.198V261H724.798V255.88H691.118Z" fill="#00E04C"/>
<path d="M353.502 99V132.12H315.342V99H295.902V183H315.342V148.56H353.502V183H372.942V99H353.502ZM430.136 184.44C454.016 184.44 468.176 170.76 468.176 146.04V99H448.976V145.32C448.976 161.28 442.136 167.88 430.256 167.88C418.496 167.88 411.536 161.28 411.536 145.32V99H392.096V146.04C392.096 170.76 406.256 184.44 430.136 184.44ZM487.386 183H525.546C553.026 183 571.866 166.44 571.866 141C571.866 115.56 553.026 99 525.546 99H487.386V183ZM506.826 167.04V114.96H524.586C541.266 114.96 552.186 124.92 552.186 141C552.186 157.08 541.266 167.04 524.586 167.04H506.826ZM614.127 184.44C638.127 184.44 649.767 172.44 649.767 158.4C649.767 127.56 600.927 138.24 600.927 122.76C600.927 117.48 605.367 113.16 616.887 113.16C624.327 113.16 632.367 115.32 640.167 119.76L646.167 105C638.367 100.08 627.567 97.56 617.007 97.56C593.127 97.56 581.607 109.44 581.607 123.72C581.607 154.92 630.447 144.12 630.447 159.84C630.447 165 625.767 168.84 614.247 168.84C604.167 168.84 593.607 165.24 586.527 160.08L579.927 174.72C587.367 180.48 600.807 184.44 614.127 184.44ZM703.73 184.44C730.13 184.44 749.69 166.08 749.69 141C749.69 115.92 730.13 97.56 703.73 97.56C677.21 97.56 657.77 116.04 657.77 141C657.77 165.96 677.21 184.44 703.73 184.44ZM703.73 167.88C688.73 167.88 677.45 156.96 677.45 141C677.45 125.04 688.73 114.12 703.73 114.12C718.73 114.12 730.01 125.04 730.01 141C730.01 156.96 718.73 167.88 703.73 167.88ZM822.14 99V150L780.38 99H764.3V183H783.5V132L825.38 183H841.34V99H822.14Z" fill="black"/>
<path d="M78.5486 220.8V150.5L44.3155 136.3C25.4404 128.5 9.61341 122.1 9.14446 122.1C8.55828 122.1 8.20657 159.2 8.20657 204.6V287.1H4.10328H0V198.6V110.2L9.73064 114C15.0063 116.1 32.4746 123.3 48.536 130C64.5974 136.6 77.8451 142.1 78.0796 142.1C78.3141 142.1 78.5486 126.1 78.5486 106.6C78.5486 78.9 78.9003 71.1 80.0726 71.1C80.7761 71.1 94.9617 74.9 111.375 79.5L141.27 87.8L141.856 73.6L142.443 59.3L172.924 38C189.689 26.3 208.798 13 215.481 8.4L227.439 0V143.5V287.1H223.336H219.233V151.5C219.233 66.5 218.764 16.1 218.177 16.3C217.474 16.5 201.882 27.1 183.475 40L149.946 63.4L150.297 77L150.649 90.6L165.655 94.5L180.544 98.5V194.8V291.1H161.2H141.856V193.3V95.5L114.306 87.9L86.7551 80.4V113V145.7L98.4788 150.6L110.202 155.5V223.3V291.1H94.3755H78.5486V220.8ZM101.996 236.3C101.996 210.5 101.644 182.7 101.175 174.4L100.472 159.4L94.141 156.7C90.7412 155.3 87.5758 154.1 87.3413 154.1C86.9896 154.1 86.7551 183.1 86.7551 218.6V283.1H94.3755H101.996V236.3ZM172.103 193.4L171.752 103.7L161.787 101C156.276 99.5 151.47 98.2 151.001 98.2C150.415 98.1 150.063 139.7 150.063 190.6V283.1H161.2H172.338L172.103 193.4Z" fill="#1B1B1B"/>
</g>
<defs>
<clipPath id="clip0">
<rect width="857" height="303" fill="white"/>
</clipPath>
</defs>
</svg>
