<svg width="572" height="572" viewBox="0 0 572 572" fill="none" xmlns="http://www.w3.org/2000/svg">
<rect width="572" height="572" fill="#012400"/>
<path d="M227.237 411.908V294.452L170.041 270.727C138.505 257.695 112.062 247.002 111.278 247.002C110.299 247.002 109.711 308.988 109.711 384.841V522.68H102.856H96V374.816V227.12L112.258 233.469C121.072 236.977 150.258 249.007 177.093 260.201C203.928 271.228 226.062 280.417 226.454 280.417C226.845 280.417 227.237 253.685 227.237 221.105C227.237 174.824 227.825 161.792 229.784 161.792C230.959 161.792 254.66 168.141 282.082 175.827L332.031 189.694L333.01 165.969L333.99 142.077L384.918 106.49C412.928 86.9414 444.856 64.7201 456.021 57.0345L476 43V282.756V522.68H469.144H462.289V296.123C462.289 154.107 461.505 69.8995 460.526 70.2337C459.351 70.5678 433.299 88.2781 402.546 109.831L346.526 148.927L347.113 171.65L347.701 194.372L372.773 200.888L397.649 207.572V368.467V529.363H365.33H333.01V365.961V202.559L286.979 189.861L240.948 177.33V231.798V286.432L260.536 294.619L280.124 302.806V416.084V529.363H253.68H227.237V411.908ZM266.412 437.805C266.412 394.699 265.825 348.251 265.041 334.383L263.866 309.322L253.289 304.811C247.608 302.472 242.32 300.467 241.928 300.467C241.34 300.467 240.948 348.919 240.948 408.232V515.997H253.68H266.412V437.805ZM383.546 366.128L382.959 216.26L366.309 211.748C357.103 209.242 349.072 207.07 348.289 207.07C347.309 206.903 346.722 276.408 346.722 361.45V515.997H365.33H383.938L383.546 366.128Z" fill="white"/>
</svg>
