<svg width="49" height="57" viewBox="0 0 49 57" fill="none" xmlns="http://www.w3.org/2000/svg">
<path d="M0 51.6562C0 54.6064 2.35156 57 5.25 57H43.75C46.6484 57 49 54.6064 49 51.6562V21.375H0V51.6562ZM7 30.2812C7 29.3016 7.7875 28.5 8.75 28.5H40.25C41.2125 28.5 42 29.3016 42 30.2812V37.4062C42 38.3859 41.2125 39.1875 40.25 39.1875H8.75C7.7875 39.1875 7 38.3859 7 37.4062V30.2812ZM43.75 7.125H38.5V1.78125C38.5 0.801562 37.7125 0 36.75 0H33.25C32.2875 0 31.5 0.801562 31.5 1.78125V7.125H17.5V1.78125C17.5 0.801562 16.7125 0 15.75 0H12.25C11.2875 0 10.5 0.801562 10.5 1.78125V7.125H5.25C2.35156 7.125 0 9.51855 0 12.4688V17.8125H49V12.4688C49 9.51855 46.6484 7.125 43.75 7.125Z" fill="#14791E"/>
</svg>
