<svg width="47" height="58" viewBox="0 0 47 58" fill="none" xmlns="http://www.w3.org/2000/svg">
<path d="M10.8462 47.125H36.1538C36.1538 49.1301 34.5382 50.75 32.5385 50.75H30.7308C28.731 50.75 27.1154 52.3699 27.1154 54.375V56.6406C27.1154 57.3883 26.5053 58 25.7596 58H21.2404C20.4947 58 19.8846 57.3883 19.8846 56.6406V54.375C19.8846 52.3699 18.269 50.75 16.2692 50.75H14.4615C12.4618 50.75 10.8462 49.1301 10.8462 47.125ZM47 23.5625C47 31.968 42.5937 39.3313 35.9844 43.5H11.0156C4.40625 39.3313 0 31.968 0 23.5625C0 10.5465 10.5185 0 23.5 0C36.4815 0 47 10.5465 47 23.5625ZM26.6522 28.5355C28.7197 28.5355 30.3918 26.859 30.3918 24.7859C30.3918 23.1547 29.3411 21.8066 27.895 21.2855C28.9796 24.3215 26.1325 27.0969 23.1611 26.032C23.6808 27.482 25.0252 28.5355 26.6522 28.5355ZM32.1995 33.8484C32.1995 32.2172 31.1488 30.8691 29.7026 30.348C30.7873 33.384 27.9401 36.1594 24.9687 35.0945C25.4885 36.5445 26.8329 37.598 28.4599 37.598C30.5274 37.598 32.1995 35.9102 32.1995 33.8484ZM39.4303 26.5984C39.4303 24.9672 38.3796 23.6191 36.9334 23.098C38.018 26.134 35.1709 28.9094 32.1995 27.8445C32.7192 29.2945 34.0637 30.348 35.6906 30.348C37.7582 30.348 39.4303 28.6602 39.4303 26.5984V26.5984Z" fill="#14791E"/>
</svg>
