<svg width="71" height="57" viewBox="0 0 71 57" fill="none" xmlns="http://www.w3.org/2000/svg">
<g clip-path="url(#clip0)">
<path d="M54.1365 21.3758H37.274V27.6101C37.274 32.0299 33.6907 35.6258 29.2865 35.6258C24.8823 35.6258 21.299 32.0299 21.299 27.6101V14.0726L14.0991 18.4144C11.958 19.6947 10.649 22.0215 10.649 24.5152V29.781L1.77399 34.9244C0.0766464 35.9041 -0.511322 38.0861 0.476021 39.7894L9.35102 55.2195C10.3273 56.9228 12.5016 57.5017 14.199 56.5221L25.6699 49.8758H40.824C44.7401 49.8758 47.924 46.6806 47.924 42.7508H49.699C51.6626 42.7508 53.249 41.1588 53.249 39.1883V32.0633H54.1365C55.6119 32.0633 56.799 30.8721 56.799 29.3914V24.0476C56.799 22.567 55.6119 21.3758 54.1365 21.3758ZM70.5219 17.2121L61.6469 1.78202C60.6707 0.0786952 58.4963 -0.500211 56.799 0.479477L45.328 7.12576H33.9902C32.659 7.12576 31.361 7.50428 30.2294 8.20565L26.513 10.5324C25.4702 11.1781 24.849 12.3248 24.849 13.5494V27.6101C24.849 30.0705 26.8348 32.0633 29.2865 32.0633C31.7382 32.0633 33.724 30.0705 33.724 27.6101V17.8133H54.1365C57.5644 17.8133 60.349 20.6076 60.349 24.0476V27.2205L69.224 22.0771C70.9213 21.0863 71.4982 18.9154 70.5219 17.2121V17.2121Z" fill="#14791E"/>
</g>
<defs>
<clipPath id="clip0">
<rect width="71" height="57" fill="white"/>
</clipPath>
</defs>
</svg>
