<svg width="54" height="48" viewBox="0 0 54 48" fill="none" xmlns="http://www.w3.org/2000/svg">
<path d="M52.5 6C53.3288 6 54 5.32875 54 4.5V1.5C54 0.67125 53.3288 0 52.5 0H1.5C0.67125 0 0 0.67125 0 1.5V4.5C0 5.32875 0.67125 6 1.5 6H2.99812V42H1.5C0.67125 42 0 42.6712 0 43.5V46.5C0 47.3288 0.67125 48 1.5 48H24V40.5C24 39.675 24.675 39 25.5 39H28.5C29.325 39 30 39.675 30 40.5V48H52.5C53.3288 48 54 47.3288 54 46.5V43.5C54 42.6712 53.3288 42 52.5 42H51V6H52.5ZM24 10.2C24 9.6 24.6 9 25.2 9H28.8C29.4 9 30 9.6 30 10.2V13.8C30 14.4 29.4 15 28.8 15H25.2C24.6 15 24 14.4 24 13.8V10.2V10.2ZM24 19.2C24 18.6 24.6 18 25.2 18H28.8C29.4 18 30 18.6 30 19.2V22.8C30 23.4 29.4 24 28.8 24H25.2C24.6 24 24 23.4 24 22.8V19.2V19.2ZM12 10.2C12 9.6 12.6 9 13.2 9H16.8C17.4 9 18 9.6 18 10.2V13.8C18 14.4 17.4 15 16.8 15H13.2C12.6 15 12 14.4 12 13.8V10.2ZM16.8 24H13.2C12.6 24 12 23.4 12 22.8V19.2C12 18.6 12.6 18 13.2 18H16.8C17.4 18 18 18.6 18 19.2V22.8C18 23.4 17.4 24 16.8 24ZM18 36C18 31.0294 22.0294 27 27 27C31.9706 27 36 31.0294 36 36H18ZM42 22.8C42 23.4 41.4 24 40.8 24H37.2C36.6 24 36 23.4 36 22.8V19.2C36 18.6 36.6 18 37.2 18H40.8C41.4 18 42 18.6 42 19.2V22.8ZM42 13.8C42 14.4 41.4 15 40.8 15H37.2C36.6 15 36 14.4 36 13.8V10.2C36 9.6 36.6 9 37.2 9H40.8C41.4 9 42 9.6 42 10.2V13.8Z" fill="#14791E"/>
</svg>
