<svg width="60" height="47" viewBox="0 0 60 47" fill="none" xmlns="http://www.w3.org/2000/svg">
<path d="M57 5.875H3C1.34344 5.875 0 7.19045 0 8.8125V38.1875C0 39.8096 1.34344 41.125 3 41.125H57C58.6566 41.125 60 39.8096 60 38.1875V8.8125C60 7.19045 58.6566 5.875 57 5.875ZM4.5 36.7188V30.8438C7.81406 30.8438 10.5 33.4737 10.5 36.7188H4.5ZM4.5 16.1562V10.2812H10.5C10.5 13.5263 7.81406 16.1562 4.5 16.1562ZM30 32.3125C25.8572 32.3125 22.5 28.3662 22.5 23.5C22.5 18.6329 25.8581 14.6875 30 14.6875C34.1419 14.6875 37.5 18.6329 37.5 23.5C37.5 28.368 34.1409 32.3125 30 32.3125ZM55.5 36.7188H49.5C49.5 33.4737 52.1859 30.8438 55.5 30.8438V36.7188ZM55.5 16.1562C52.1859 16.1562 49.5 13.5263 49.5 10.2812H55.5V16.1562Z" fill="#14791E"/>
</svg>
