<svg width="53" height="47" viewBox="0 0 53 47" fill="none" xmlns="http://www.w3.org/2000/svg">
<path d="M50.7917 5.875H8.09722C6.87758 5.875 5.88889 6.86136 5.88889 8.07812V8.8125H2.20833C0.988689 8.8125 0 9.79886 0 11.0156V35.9844C0 38.8235 2.30697 41.125 5.15278 41.125H48.5833C51.0226 41.125 53 39.1523 53 36.7188V8.07812C53 6.86136 52.0113 5.875 50.7917 5.875ZM5.15278 36.7188C4.95755 36.7188 4.77032 36.6414 4.63227 36.5037C4.49422 36.3659 4.41667 36.1791 4.41667 35.9844V13.2188H5.88889V35.9844C5.88889 36.1791 5.81133 36.3659 5.67329 36.5037C5.53524 36.6414 5.34801 36.7188 5.15278 36.7188ZM26.8681 35.25H12.8819C12.2722 35.25 11.7778 34.7568 11.7778 34.1484V33.4141C11.7778 32.8057 12.2722 32.3125 12.8819 32.3125H26.8681C27.4778 32.3125 27.9722 32.8057 27.9722 33.4141V34.1484C27.9722 34.7568 27.4778 35.25 26.8681 35.25ZM46.0069 35.25H32.0208C31.4111 35.25 30.9167 34.7568 30.9167 34.1484V33.4141C30.9167 32.8057 31.4111 32.3125 32.0208 32.3125H46.0069C46.6167 32.3125 47.1111 32.8057 47.1111 33.4141V34.1484C47.1111 34.7568 46.6167 35.25 46.0069 35.25ZM26.8681 26.4375H12.8819C12.2722 26.4375 11.7778 25.9443 11.7778 25.3359V24.6016C11.7778 23.9932 12.2722 23.5 12.8819 23.5H26.8681C27.4778 23.5 27.9722 23.9932 27.9722 24.6016V25.3359C27.9722 25.9443 27.4778 26.4375 26.8681 26.4375ZM46.0069 26.4375H32.0208C31.4111 26.4375 30.9167 25.9443 30.9167 25.3359V24.6016C30.9167 23.9932 31.4111 23.5 32.0208 23.5H46.0069C46.6167 23.5 47.1111 23.9932 47.1111 24.6016V25.3359C47.1111 25.9443 46.6167 26.4375 46.0069 26.4375ZM46.0069 17.625H12.8819C12.2722 17.625 11.7778 17.1318 11.7778 16.5234V12.8516C11.7778 12.2432 12.2722 11.75 12.8819 11.75H46.0069C46.6167 11.75 47.1111 12.2432 47.1111 12.8516V16.5234C47.1111 17.1318 46.6167 17.625 46.0069 17.625Z" fill="#14791E"/>
</svg>
