<svg width="57" height="57" viewBox="0 0 57 57" fill="none" xmlns="http://www.w3.org/2000/svg">
<g clip-path="url(#clip0)">
<path d="M56.2252 49.2805L45.1246 38.1822C44.6237 37.6812 43.9445 37.4029 43.232 37.4029H41.4174C44.4901 33.473 46.3158 28.5312 46.3158 23.154C46.3158 10.3635 35.9501 0 23.1585 0C10.3669 0 0 10.3635 0 23.154C0 35.9445 10.3658 46.308 23.1585 46.308C28.5356 46.308 33.4797 44.4823 37.4096 41.4096V43.2243C37.4096 43.9368 37.6879 44.6159 38.1889 45.1168L49.2894 56.2151C50.3359 57.2616 52.0281 57.2616 53.0634 56.2151L56.214 53.0646C57.2605 52.0181 57.2605 50.327 56.2252 49.2805V49.2805ZM23.1585 39.183C14.3034 39.183 7.12723 32.0202 7.12723 23.154C7.12723 14.3001 14.2912 7.125 23.1585 7.125C32.0135 7.125 39.1897 14.2879 39.1897 23.154C39.1897 32.0079 32.0258 39.183 23.1585 39.183ZM26.1766 22.2011L21.1657 20.6981C20.5912 20.5256 20.1894 19.9433 20.1894 19.2809C20.1894 18.4716 20.7794 17.8125 21.503 17.8125H24.6325C25.1401 17.8125 25.63 17.9561 26.0597 18.2266C26.4204 18.4526 26.8791 18.4393 27.1874 18.1454L28.4955 16.8974C28.8885 16.5222 28.8663 15.8721 28.4321 15.5459C27.419 14.7855 26.1966 14.3469 24.9397 14.2823V12.4688C24.9397 11.9767 24.5412 11.5781 24.0491 11.5781H22.2679C21.7758 11.5781 21.3772 11.9767 21.3772 12.4688V14.2634C18.7465 14.3335 16.6257 16.5512 16.6257 19.2809C16.6257 21.5041 18.0719 23.4902 20.1415 24.1114L25.1524 25.6144C25.7268 25.7869 26.1287 26.3692 26.1287 27.0316C26.1287 27.8409 25.5387 28.5 24.815 28.5H21.6867C21.1791 28.5 20.6892 28.3564 20.2595 28.0859C19.8988 27.8599 19.4401 27.8732 19.1317 28.1671L17.8236 29.4151C17.4306 29.7903 17.4529 30.4404 17.8871 30.7666C18.9002 31.527 20.1226 31.9656 21.3795 32.0302V33.8438C21.3795 34.3358 21.778 34.7344 22.2701 34.7344H24.0513C24.5434 34.7344 24.942 34.3358 24.942 33.8438V32.0491C27.5726 31.979 29.6934 29.7625 29.6934 27.0316C29.6934 24.8084 28.2473 22.8223 26.1766 22.2011V22.2011Z" fill="#14791E"/>
</g>
<defs>
<clipPath id="clip0">
<rect width="57" height="57" fill="white"/>
</clipPath>
</defs>
</svg>
